<mxfile host="app.diagrams.net" modified="2020-09-29T16:29:44.220Z" agent="5.0 (Macintosh; Intel Mac OS X 10_16_0) AppleWebKit/537.36 (KHTML, like Gecko) Chrome/85.0.4183.121 Safari/537.36" etag="vv3pbkJ1X1YadYiU6XqY" version="13.7.6" type="github">
  <diagram id="C5RBs43oDa-KdzZeNtuy" name="Page-1">
    <mxGraphModel dx="1965" dy="1285" grid="1" gridSize="10" guides="1" tooltips="1" connect="1" arrows="1" fold="1" page="1" pageScale="1" pageWidth="827" pageHeight="1169" math="0" shadow="0">
      <root>
        <mxCell id="WIyWlLk6GJQsqaUBKTNV-0" />
        <mxCell id="WIyWlLk6GJQsqaUBKTNV-1" parent="WIyWlLk6GJQsqaUBKTNV-0" />
        <mxCell id="-uarBoEVgPk2LizDU0yT-13" style="edgeStyle=orthogonalEdgeStyle;rounded=0;orthogonalLoop=1;jettySize=auto;html=1;exitX=0.5;exitY=1;exitDx=0;exitDy=0;entryX=0.5;entryY=0;entryDx=0;entryDy=0;" edge="1" parent="WIyWlLk6GJQsqaUBKTNV-1" source="-uarBoEVgPk2LizDU0yT-23" target="-uarBoEVgPk2LizDU0yT-11">
          <mxGeometry relative="1" as="geometry">
            <mxPoint x="530" y="446" as="sourcePoint" />
          </mxGeometry>
        </mxCell>
        <mxCell id="-uarBoEVgPk2LizDU0yT-44" style="edgeStyle=orthogonalEdgeStyle;rounded=0;orthogonalLoop=1;jettySize=auto;html=1;exitX=0.5;exitY=1;exitDx=0;exitDy=0;entryX=0.5;entryY=0;entryDx=0;entryDy=0;" edge="1" parent="WIyWlLk6GJQsqaUBKTNV-1" source="-uarBoEVgPk2LizDU0yT-3" target="-uarBoEVgPk2LizDU0yT-23">
          <mxGeometry relative="1" as="geometry" />
        </mxCell>
        <mxCell id="-uarBoEVgPk2LizDU0yT-45" style="edgeStyle=orthogonalEdgeStyle;rounded=0;orthogonalLoop=1;jettySize=auto;html=1;exitX=0.5;exitY=1;exitDx=0;exitDy=0;entryX=0.5;entryY=0;entryDx=0;entryDy=0;" edge="1" parent="WIyWlLk6GJQsqaUBKTNV-1" source="-uarBoEVgPk2LizDU0yT-3" target="-uarBoEVgPk2LizDU0yT-35">
          <mxGeometry relative="1" as="geometry" />
        </mxCell>
        <mxCell id="-uarBoEVgPk2LizDU0yT-46" style="edgeStyle=orthogonalEdgeStyle;rounded=0;orthogonalLoop=1;jettySize=auto;html=1;exitX=0.5;exitY=1;exitDx=0;exitDy=0;entryX=0.5;entryY=0;entryDx=0;entryDy=0;" edge="1" parent="WIyWlLk6GJQsqaUBKTNV-1" source="-uarBoEVgPk2LizDU0yT-3" target="-uarBoEVgPk2LizDU0yT-43">
          <mxGeometry relative="1" as="geometry" />
        </mxCell>
        <mxCell id="-uarBoEVgPk2LizDU0yT-51" style="edgeStyle=orthogonalEdgeStyle;rounded=0;orthogonalLoop=1;jettySize=auto;html=1;exitX=0.5;exitY=1;exitDx=0;exitDy=0;entryX=0.5;entryY=0;entryDx=0;entryDy=0;" edge="1" parent="WIyWlLk6GJQsqaUBKTNV-1" source="-uarBoEVgPk2LizDU0yT-3" target="-uarBoEVgPk2LizDU0yT-47">
          <mxGeometry relative="1" as="geometry" />
        </mxCell>
        <mxCell id="-uarBoEVgPk2LizDU0yT-3" value="Start" style="rounded=1;whiteSpace=wrap;html=1;fontSize=12;glass=0;strokeWidth=1;shadow=0;" vertex="1" parent="WIyWlLk6GJQsqaUBKTNV-1">
          <mxGeometry x="500" y="400" width="120" height="40" as="geometry" />
        </mxCell>
        <mxCell id="-uarBoEVgPk2LizDU0yT-7" value="Steps to buy hotel on Pennsylvania Avenue:&lt;br&gt;&lt;br&gt;0. START&lt;br&gt;1. Buy Pennsylvania Ave. ($320), Pacific Ave. and N. Carolina Ave.&lt;br&gt;&lt;br&gt;2. Place 4 houses on all properties. (each house costs $200)&lt;br&gt;&lt;br&gt;* rule: The properties in a color group must be developed evenly, i.e. each house that is built must go on a property in the group with the fewest number of houses on it so far.&lt;br&gt;&lt;br&gt;3. Then, replace houses with 1 hotel (END)" style="text;html=1;strokeColor=none;fillColor=none;align=left;verticalAlign=middle;whiteSpace=wrap;rounded=0;" vertex="1" parent="WIyWlLk6GJQsqaUBKTNV-1">
          <mxGeometry x="774" y="280" width="390" height="170" as="geometry" />
        </mxCell>
        <mxCell id="-uarBoEVgPk2LizDU0yT-56" style="edgeStyle=orthogonalEdgeStyle;rounded=0;orthogonalLoop=1;jettySize=auto;html=1;exitX=0.5;exitY=1;exitDx=0;exitDy=0;entryX=0.5;entryY=0;entryDx=0;entryDy=0;" edge="1" parent="WIyWlLk6GJQsqaUBKTNV-1" source="-uarBoEVgPk2LizDU0yT-9" target="-uarBoEVgPk2LizDU0yT-55">
          <mxGeometry relative="1" as="geometry" />
        </mxCell>
        <mxCell id="-uarBoEVgPk2LizDU0yT-9" value="Buy Pennsylvania Ave." style="rounded=0;whiteSpace=wrap;html=1;align=center;" vertex="1" parent="WIyWlLk6GJQsqaUBKTNV-1">
          <mxGeometry x="410" y="950" width="140" height="30" as="geometry" />
        </mxCell>
        <mxCell id="-uarBoEVgPk2LizDU0yT-14" style="edgeStyle=orthogonalEdgeStyle;rounded=0;orthogonalLoop=1;jettySize=auto;html=1;exitX=0.5;exitY=1;exitDx=0;exitDy=0;entryX=0.5;entryY=0;entryDx=0;entryDy=0;" edge="1" parent="WIyWlLk6GJQsqaUBKTNV-1" source="-uarBoEVgPk2LizDU0yT-11" target="-uarBoEVgPk2LizDU0yT-12">
          <mxGeometry relative="1" as="geometry" />
        </mxCell>
        <mxCell id="-uarBoEVgPk2LizDU0yT-11" value="Do you have at least $320?" style="rhombus;whiteSpace=wrap;html=1;align=center;" vertex="1" parent="WIyWlLk6GJQsqaUBKTNV-1">
          <mxGeometry x="380" y="700" width="200" height="90" as="geometry" />
        </mxCell>
        <mxCell id="-uarBoEVgPk2LizDU0yT-17" style="edgeStyle=orthogonalEdgeStyle;rounded=0;orthogonalLoop=1;jettySize=auto;html=1;exitX=0.5;exitY=1;exitDx=0;exitDy=0;entryX=0.5;entryY=0;entryDx=0;entryDy=0;" edge="1" parent="WIyWlLk6GJQsqaUBKTNV-1" source="-uarBoEVgPk2LizDU0yT-12" target="-uarBoEVgPk2LizDU0yT-9">
          <mxGeometry relative="1" as="geometry" />
        </mxCell>
        <mxCell id="-uarBoEVgPk2LizDU0yT-67" style="edgeStyle=orthogonalEdgeStyle;rounded=0;orthogonalLoop=1;jettySize=auto;html=1;exitX=0;exitY=0.5;exitDx=0;exitDy=0;entryX=1;entryY=0.5;entryDx=0;entryDy=0;" edge="1" parent="WIyWlLk6GJQsqaUBKTNV-1" source="-uarBoEVgPk2LizDU0yT-12">
          <mxGeometry relative="1" as="geometry">
            <mxPoint x="400" y="860" as="targetPoint" />
          </mxGeometry>
        </mxCell>
        <mxCell id="-uarBoEVgPk2LizDU0yT-12" value="Buy?" style="rhombus;whiteSpace=wrap;html=1;align=center;" vertex="1" parent="WIyWlLk6GJQsqaUBKTNV-1">
          <mxGeometry x="435" y="820" width="90" height="80" as="geometry" />
        </mxCell>
        <mxCell id="-uarBoEVgPk2LizDU0yT-18" value="&lt;h1&gt;Rubric&lt;/h1&gt;&lt;p&gt;&lt;span&gt;Write a program that will ask the user a series of questions and determine whether the player can place a hotel on Pennsylvania Avenue. For the purposes of this problem, we are not including the logic to purchase a given property.&lt;/span&gt;&lt;br&gt;&lt;br&gt;&lt;span&gt;The question: under what circumstances can a player place a hotel on his or her property?&amp;nbsp;&lt;/span&gt;&lt;/p&gt;&lt;span&gt;Rule:&lt;/span&gt;&lt;br&gt;&lt;span&gt;1. The properties in a color group must be developed evenly, i.e. each house that is built must go on a property in the group with the fewest number of houses on it so far.&lt;br&gt;&lt;/span&gt;&lt;span&gt;&lt;br&gt;For this assignment, our job is to create a flowchart representing the decision process of whether a player can put a hotel on Pennsylvania Avenue. The program will then recommend the least-expensive path to do so.&lt;/span&gt;&lt;span&gt;&lt;br&gt;&lt;/span&gt;&lt;p style=&quot;margin-top: 0px&quot;&gt;Hints:&lt;/p&gt;&lt;ul&gt;&lt;li style=&quot;list-style-type: square ; padding-bottom: 6px&quot;&gt;Make sure you check that the player has enough funds to build the hotel. You may prompt the user to see how much money he or she as to spend on property improvements.&lt;/li&gt;&lt;li style=&quot;list-style-type: square ; padding-bottom: 6px&quot;&gt;There should be about a dozen decision diamonds. If you only have a couple, then you are probably missing several cases.&lt;/li&gt;&lt;/ul&gt;" style="text;html=1;strokeColor=none;fillColor=none;spacing=5;spacingTop=-20;whiteSpace=wrap;overflow=hidden;rounded=0;align=left;" vertex="1" parent="WIyWlLk6GJQsqaUBKTNV-1">
          <mxGeometry x="380" y="10" width="1030" height="270" as="geometry" />
        </mxCell>
        <mxCell id="-uarBoEVgPk2LizDU0yT-23" value="Do you already own &lt;br&gt;Pennsylvania Ave.?" style="rhombus;whiteSpace=wrap;html=1;align=center;" vertex="1" parent="WIyWlLk6GJQsqaUBKTNV-1">
          <mxGeometry x="380" y="540" width="200" height="100" as="geometry" />
        </mxCell>
        <mxCell id="-uarBoEVgPk2LizDU0yT-28" style="edgeStyle=orthogonalEdgeStyle;rounded=0;orthogonalLoop=1;jettySize=auto;html=1;exitX=0.5;exitY=1;exitDx=0;exitDy=0;entryX=0.5;entryY=0;entryDx=0;entryDy=0;" edge="1" source="-uarBoEVgPk2LizDU0yT-35" target="-uarBoEVgPk2LizDU0yT-31" parent="WIyWlLk6GJQsqaUBKTNV-1">
          <mxGeometry relative="1" as="geometry">
            <mxPoint x="760" y="446" as="sourcePoint" />
          </mxGeometry>
        </mxCell>
        <mxCell id="-uarBoEVgPk2LizDU0yT-59" style="edgeStyle=orthogonalEdgeStyle;rounded=0;orthogonalLoop=1;jettySize=auto;html=1;exitX=0.5;exitY=1;exitDx=0;exitDy=0;entryX=0.5;entryY=0;entryDx=0;entryDy=0;" edge="1" parent="WIyWlLk6GJQsqaUBKTNV-1" source="-uarBoEVgPk2LizDU0yT-29" target="-uarBoEVgPk2LizDU0yT-55">
          <mxGeometry relative="1" as="geometry" />
        </mxCell>
        <mxCell id="-uarBoEVgPk2LizDU0yT-29" value="Buy Pennsylvania Ave." style="rounded=0;whiteSpace=wrap;html=1;align=center;" vertex="1" parent="WIyWlLk6GJQsqaUBKTNV-1">
          <mxGeometry x="690" y="950" width="140" height="30" as="geometry" />
        </mxCell>
        <mxCell id="-uarBoEVgPk2LizDU0yT-30" style="edgeStyle=orthogonalEdgeStyle;rounded=0;orthogonalLoop=1;jettySize=auto;html=1;exitX=0.5;exitY=1;exitDx=0;exitDy=0;entryX=0.5;entryY=0;entryDx=0;entryDy=0;" edge="1" source="-uarBoEVgPk2LizDU0yT-31" target="-uarBoEVgPk2LizDU0yT-34" parent="WIyWlLk6GJQsqaUBKTNV-1">
          <mxGeometry relative="1" as="geometry" />
        </mxCell>
        <mxCell id="-uarBoEVgPk2LizDU0yT-31" value="Do you have at least $320?" style="rhombus;whiteSpace=wrap;html=1;align=center;" vertex="1" parent="WIyWlLk6GJQsqaUBKTNV-1">
          <mxGeometry x="660" y="700" width="200" height="90" as="geometry" />
        </mxCell>
        <mxCell id="-uarBoEVgPk2LizDU0yT-33" style="edgeStyle=orthogonalEdgeStyle;rounded=0;orthogonalLoop=1;jettySize=auto;html=1;exitX=0.5;exitY=1;exitDx=0;exitDy=0;entryX=0.5;entryY=0;entryDx=0;entryDy=0;" edge="1" source="-uarBoEVgPk2LizDU0yT-34" target="-uarBoEVgPk2LizDU0yT-29" parent="WIyWlLk6GJQsqaUBKTNV-1">
          <mxGeometry relative="1" as="geometry" />
        </mxCell>
        <mxCell id="-uarBoEVgPk2LizDU0yT-68" style="edgeStyle=orthogonalEdgeStyle;rounded=0;orthogonalLoop=1;jettySize=auto;html=1;exitX=0;exitY=0.5;exitDx=0;exitDy=0;entryX=1;entryY=0.5;entryDx=0;entryDy=0;" edge="1" parent="WIyWlLk6GJQsqaUBKTNV-1" source="-uarBoEVgPk2LizDU0yT-34">
          <mxGeometry relative="1" as="geometry">
            <mxPoint x="680" y="860" as="targetPoint" />
          </mxGeometry>
        </mxCell>
        <mxCell id="-uarBoEVgPk2LizDU0yT-34" value="Buy?" style="rhombus;whiteSpace=wrap;html=1;align=center;" vertex="1" parent="WIyWlLk6GJQsqaUBKTNV-1">
          <mxGeometry x="715" y="820" width="90" height="80" as="geometry" />
        </mxCell>
        <mxCell id="-uarBoEVgPk2LizDU0yT-35" value="Do you already own &lt;br&gt;Pacific Ave.?" style="rhombus;whiteSpace=wrap;html=1;align=center;" vertex="1" parent="WIyWlLk6GJQsqaUBKTNV-1">
          <mxGeometry x="660" y="540" width="200" height="100" as="geometry" />
        </mxCell>
        <mxCell id="-uarBoEVgPk2LizDU0yT-36" style="edgeStyle=orthogonalEdgeStyle;rounded=0;orthogonalLoop=1;jettySize=auto;html=1;exitX=0.5;exitY=1;exitDx=0;exitDy=0;entryX=0.5;entryY=0;entryDx=0;entryDy=0;" edge="1" source="-uarBoEVgPk2LizDU0yT-43" target="-uarBoEVgPk2LizDU0yT-39" parent="WIyWlLk6GJQsqaUBKTNV-1">
          <mxGeometry relative="1" as="geometry">
            <mxPoint x="990" y="446" as="sourcePoint" />
          </mxGeometry>
        </mxCell>
        <mxCell id="-uarBoEVgPk2LizDU0yT-58" style="edgeStyle=orthogonalEdgeStyle;rounded=0;orthogonalLoop=1;jettySize=auto;html=1;exitX=0.5;exitY=1;exitDx=0;exitDy=0;entryX=0.5;entryY=0;entryDx=0;entryDy=0;" edge="1" parent="WIyWlLk6GJQsqaUBKTNV-1" source="-uarBoEVgPk2LizDU0yT-37" target="-uarBoEVgPk2LizDU0yT-55">
          <mxGeometry relative="1" as="geometry" />
        </mxCell>
        <mxCell id="-uarBoEVgPk2LizDU0yT-81" value="Buy a house or hotel..." style="edgeLabel;html=1;align=center;verticalAlign=middle;resizable=0;points=[];" vertex="1" connectable="0" parent="-uarBoEVgPk2LizDU0yT-58">
          <mxGeometry x="0.8235" y="2" relative="1" as="geometry">
            <mxPoint as="offset" />
          </mxGeometry>
        </mxCell>
        <mxCell id="-uarBoEVgPk2LizDU0yT-37" value="Buy Pennsylvania Ave." style="rounded=0;whiteSpace=wrap;html=1;align=center;" vertex="1" parent="WIyWlLk6GJQsqaUBKTNV-1">
          <mxGeometry x="920" y="950" width="140" height="30" as="geometry" />
        </mxCell>
        <mxCell id="-uarBoEVgPk2LizDU0yT-38" style="edgeStyle=orthogonalEdgeStyle;rounded=0;orthogonalLoop=1;jettySize=auto;html=1;exitX=0.5;exitY=1;exitDx=0;exitDy=0;entryX=0.5;entryY=0;entryDx=0;entryDy=0;" edge="1" source="-uarBoEVgPk2LizDU0yT-39" target="-uarBoEVgPk2LizDU0yT-42" parent="WIyWlLk6GJQsqaUBKTNV-1">
          <mxGeometry relative="1" as="geometry" />
        </mxCell>
        <mxCell id="-uarBoEVgPk2LizDU0yT-39" value="Do you have at least $320?" style="rhombus;whiteSpace=wrap;html=1;align=center;" vertex="1" parent="WIyWlLk6GJQsqaUBKTNV-1">
          <mxGeometry x="890" y="700" width="200" height="90" as="geometry" />
        </mxCell>
        <mxCell id="-uarBoEVgPk2LizDU0yT-41" style="edgeStyle=orthogonalEdgeStyle;rounded=0;orthogonalLoop=1;jettySize=auto;html=1;exitX=0.5;exitY=1;exitDx=0;exitDy=0;entryX=0.5;entryY=0;entryDx=0;entryDy=0;" edge="1" source="-uarBoEVgPk2LizDU0yT-42" target="-uarBoEVgPk2LizDU0yT-37" parent="WIyWlLk6GJQsqaUBKTNV-1">
          <mxGeometry relative="1" as="geometry" />
        </mxCell>
        <mxCell id="-uarBoEVgPk2LizDU0yT-102" style="edgeStyle=orthogonalEdgeStyle;rounded=0;orthogonalLoop=1;jettySize=auto;html=1;exitX=0;exitY=0.5;exitDx=0;exitDy=0;entryX=1;entryY=0.5;entryDx=0;entryDy=0;" edge="1" parent="WIyWlLk6GJQsqaUBKTNV-1" source="-uarBoEVgPk2LizDU0yT-42" target="-uarBoEVgPk2LizDU0yT-101">
          <mxGeometry relative="1" as="geometry" />
        </mxCell>
        <mxCell id="-uarBoEVgPk2LizDU0yT-42" value="Buy?" style="rhombus;html=1;align=center;" vertex="1" parent="WIyWlLk6GJQsqaUBKTNV-1">
          <mxGeometry x="945" y="820" width="90" height="80" as="geometry" />
        </mxCell>
        <mxCell id="-uarBoEVgPk2LizDU0yT-43" value="Do you already own &lt;br&gt;North Carolina Ave.?" style="rhombus;whiteSpace=wrap;html=1;align=center;" vertex="1" parent="WIyWlLk6GJQsqaUBKTNV-1">
          <mxGeometry x="890" y="540" width="200" height="100" as="geometry" />
        </mxCell>
        <mxCell id="-uarBoEVgPk2LizDU0yT-53" style="edgeStyle=orthogonalEdgeStyle;rounded=0;orthogonalLoop=1;jettySize=auto;html=1;exitX=0.5;exitY=1;exitDx=0;exitDy=0;entryX=0.5;entryY=0;entryDx=0;entryDy=0;" edge="1" parent="WIyWlLk6GJQsqaUBKTNV-1" source="-uarBoEVgPk2LizDU0yT-47" target="-uarBoEVgPk2LizDU0yT-52">
          <mxGeometry relative="1" as="geometry" />
        </mxCell>
        <mxCell id="-uarBoEVgPk2LizDU0yT-47" value="Bankrupt?" style="rhombus;whiteSpace=wrap;html=1;align=center;" vertex="1" parent="WIyWlLk6GJQsqaUBKTNV-1">
          <mxGeometry x="1130" y="540" width="200" height="100" as="geometry" />
        </mxCell>
        <mxCell id="-uarBoEVgPk2LizDU0yT-52" value="End" style="rounded=1;whiteSpace=wrap;html=1;align=center;" vertex="1" parent="WIyWlLk6GJQsqaUBKTNV-1">
          <mxGeometry x="1170" y="730" width="120" height="40" as="geometry" />
        </mxCell>
        <mxCell id="-uarBoEVgPk2LizDU0yT-78" style="edgeStyle=orthogonalEdgeStyle;rounded=0;orthogonalLoop=1;jettySize=auto;html=1;exitX=0.5;exitY=1;exitDx=0;exitDy=0;entryX=0.5;entryY=0;entryDx=0;entryDy=0;" edge="1" parent="WIyWlLk6GJQsqaUBKTNV-1" source="-uarBoEVgPk2LizDU0yT-55" target="-uarBoEVgPk2LizDU0yT-64">
          <mxGeometry relative="1" as="geometry" />
        </mxCell>
        <mxCell id="-uarBoEVgPk2LizDU0yT-79" value="Yes" style="edgeLabel;html=1;align=center;verticalAlign=middle;resizable=0;points=[];" vertex="1" connectable="0" parent="-uarBoEVgPk2LizDU0yT-78">
          <mxGeometry x="-0.3" y="-2" relative="1" as="geometry">
            <mxPoint as="offset" />
          </mxGeometry>
        </mxCell>
        <mxCell id="-uarBoEVgPk2LizDU0yT-88" style="edgeStyle=orthogonalEdgeStyle;rounded=0;orthogonalLoop=1;jettySize=auto;html=1;exitX=1;exitY=0.5;exitDx=0;exitDy=0;entryX=0;entryY=0.5;entryDx=0;entryDy=0;" edge="1" parent="WIyWlLk6GJQsqaUBKTNV-1" source="-uarBoEVgPk2LizDU0yT-55" target="-uarBoEVgPk2LizDU0yT-87">
          <mxGeometry relative="1" as="geometry" />
        </mxCell>
        <mxCell id="-uarBoEVgPk2LizDU0yT-89" value="No" style="edgeLabel;html=1;align=center;verticalAlign=middle;resizable=0;points=[];" vertex="1" connectable="0" parent="-uarBoEVgPk2LizDU0yT-88">
          <mxGeometry x="0.0286" relative="1" as="geometry">
            <mxPoint as="offset" />
          </mxGeometry>
        </mxCell>
        <mxCell id="-uarBoEVgPk2LizDU0yT-55" value="Does any property have &lt;br&gt;less than 4 houses?" style="rhombus;whiteSpace=wrap;html=1;align=center;" vertex="1" parent="WIyWlLk6GJQsqaUBKTNV-1">
          <mxGeometry x="660" y="1090" width="200" height="100" as="geometry" />
        </mxCell>
        <mxCell id="-uarBoEVgPk2LizDU0yT-82" style="edgeStyle=orthogonalEdgeStyle;rounded=0;orthogonalLoop=1;jettySize=auto;html=1;entryX=1;entryY=0.5;entryDx=0;entryDy=0;" edge="1" parent="WIyWlLk6GJQsqaUBKTNV-1" source="-uarBoEVgPk2LizDU0yT-62" target="-uarBoEVgPk2LizDU0yT-63">
          <mxGeometry relative="1" as="geometry" />
        </mxCell>
        <mxCell id="-uarBoEVgPk2LizDU0yT-85" value="No" style="edgeLabel;html=1;align=center;verticalAlign=middle;resizable=0;points=[];" vertex="1" connectable="0" parent="-uarBoEVgPk2LizDU0yT-82">
          <mxGeometry x="-0.2" y="-3" relative="1" as="geometry">
            <mxPoint as="offset" />
          </mxGeometry>
        </mxCell>
        <mxCell id="-uarBoEVgPk2LizDU0yT-94" style="edgeStyle=orthogonalEdgeStyle;rounded=0;orthogonalLoop=1;jettySize=auto;html=1;exitX=0.5;exitY=1;exitDx=0;exitDy=0;entryX=0.5;entryY=0;entryDx=0;entryDy=0;" edge="1" parent="WIyWlLk6GJQsqaUBKTNV-1" source="-uarBoEVgPk2LizDU0yT-62" target="-uarBoEVgPk2LizDU0yT-93">
          <mxGeometry relative="1" as="geometry" />
        </mxCell>
        <mxCell id="-uarBoEVgPk2LizDU0yT-95" value="Yes" style="edgeLabel;html=1;align=center;verticalAlign=middle;resizable=0;points=[];" vertex="1" connectable="0" parent="-uarBoEVgPk2LizDU0yT-94">
          <mxGeometry x="-0.2" y="2" relative="1" as="geometry">
            <mxPoint as="offset" />
          </mxGeometry>
        </mxCell>
        <mxCell id="-uarBoEVgPk2LizDU0yT-62" value="Do any properties have less&lt;br&gt;houses than the others?" style="rhombus;whiteSpace=wrap;html=1;align=center;" vertex="1" parent="WIyWlLk6GJQsqaUBKTNV-1">
          <mxGeometry x="660" y="1400" width="200" height="100" as="geometry" />
        </mxCell>
        <mxCell id="-uarBoEVgPk2LizDU0yT-63" value="Pick a property and put a house on it" style="rounded=0;whiteSpace=wrap;html=1;align=center;" vertex="1" parent="WIyWlLk6GJQsqaUBKTNV-1">
          <mxGeometry x="480" y="1420" width="120" height="60" as="geometry" />
        </mxCell>
        <mxCell id="-uarBoEVgPk2LizDU0yT-77" style="edgeStyle=orthogonalEdgeStyle;rounded=0;orthogonalLoop=1;jettySize=auto;html=1;exitX=0;exitY=0.5;exitDx=0;exitDy=0;entryX=1;entryY=0.5;entryDx=0;entryDy=0;" edge="1" parent="WIyWlLk6GJQsqaUBKTNV-1" source="-uarBoEVgPk2LizDU0yT-64" target="-uarBoEVgPk2LizDU0yT-70">
          <mxGeometry relative="1" as="geometry" />
        </mxCell>
        <mxCell id="-uarBoEVgPk2LizDU0yT-84" value="No" style="edgeLabel;html=1;align=center;verticalAlign=middle;resizable=0;points=[];" vertex="1" connectable="0" parent="-uarBoEVgPk2LizDU0yT-77">
          <mxGeometry x="-0.2" y="1" relative="1" as="geometry">
            <mxPoint as="offset" />
          </mxGeometry>
        </mxCell>
        <mxCell id="-uarBoEVgPk2LizDU0yT-80" style="edgeStyle=orthogonalEdgeStyle;rounded=0;orthogonalLoop=1;jettySize=auto;html=1;exitX=0.5;exitY=1;exitDx=0;exitDy=0;entryX=0.5;entryY=0;entryDx=0;entryDy=0;" edge="1" parent="WIyWlLk6GJQsqaUBKTNV-1" source="-uarBoEVgPk2LizDU0yT-64" target="-uarBoEVgPk2LizDU0yT-62">
          <mxGeometry relative="1" as="geometry" />
        </mxCell>
        <mxCell id="-uarBoEVgPk2LizDU0yT-83" value="Yes" style="edgeLabel;html=1;align=center;verticalAlign=middle;resizable=0;points=[];" vertex="1" connectable="0" parent="-uarBoEVgPk2LizDU0yT-80">
          <mxGeometry x="-0.4667" y="-2" relative="1" as="geometry">
            <mxPoint as="offset" />
          </mxGeometry>
        </mxCell>
        <mxCell id="-uarBoEVgPk2LizDU0yT-64" value="Can you afford a &lt;br&gt;new house? &lt;br&gt;(do you have &lt;br&gt;more than $200)" style="rhombus;whiteSpace=wrap;html=1;align=center;" vertex="1" parent="WIyWlLk6GJQsqaUBKTNV-1">
          <mxGeometry x="650" y="1240" width="220" height="110" as="geometry" />
        </mxCell>
        <mxCell id="-uarBoEVgPk2LizDU0yT-70" value="Wait for another turn / more money, go Back to Start" style="rounded=0;whiteSpace=wrap;html=1;align=center;" vertex="1" parent="WIyWlLk6GJQsqaUBKTNV-1">
          <mxGeometry x="490" y="1265" width="110" height="60" as="geometry" />
        </mxCell>
        <mxCell id="-uarBoEVgPk2LizDU0yT-92" style="edgeStyle=orthogonalEdgeStyle;rounded=0;orthogonalLoop=1;jettySize=auto;html=1;exitX=0.5;exitY=1;exitDx=0;exitDy=0;entryX=0.5;entryY=0;entryDx=0;entryDy=0;" edge="1" parent="WIyWlLk6GJQsqaUBKTNV-1" source="-uarBoEVgPk2LizDU0yT-87" target="-uarBoEVgPk2LizDU0yT-91">
          <mxGeometry relative="1" as="geometry" />
        </mxCell>
        <mxCell id="-uarBoEVgPk2LizDU0yT-87" value="Put a hotel on Pennsylvania Ave.&lt;br&gt;(Success!)" style="rounded=0;whiteSpace=wrap;html=1;align=center;" vertex="1" parent="WIyWlLk6GJQsqaUBKTNV-1">
          <mxGeometry x="1000" y="1110" width="120" height="60" as="geometry" />
        </mxCell>
        <mxCell id="-uarBoEVgPk2LizDU0yT-91" value="End" style="rounded=1;whiteSpace=wrap;html=1;align=center;" vertex="1" parent="WIyWlLk6GJQsqaUBKTNV-1">
          <mxGeometry x="1000" y="1210" width="120" height="40" as="geometry" />
        </mxCell>
        <mxCell id="-uarBoEVgPk2LizDU0yT-104" style="edgeStyle=orthogonalEdgeStyle;rounded=0;orthogonalLoop=1;jettySize=auto;html=1;exitX=0.5;exitY=1;exitDx=0;exitDy=0;entryX=0.5;entryY=0;entryDx=0;entryDy=0;" edge="1" parent="WIyWlLk6GJQsqaUBKTNV-1" source="-uarBoEVgPk2LizDU0yT-93" target="-uarBoEVgPk2LizDU0yT-103">
          <mxGeometry relative="1" as="geometry" />
        </mxCell>
        <mxCell id="-uarBoEVgPk2LizDU0yT-93" value="Put a house on any of those properties (the one(s) with less houses)" style="rounded=0;whiteSpace=wrap;html=1;align=center;" vertex="1" parent="WIyWlLk6GJQsqaUBKTNV-1">
          <mxGeometry x="700" y="1550" width="120" height="60" as="geometry" />
        </mxCell>
        <mxCell id="-uarBoEVgPk2LizDU0yT-97" value="Wait for another turn / more money, go Back to Start" style="rounded=0;whiteSpace=wrap;html=1;align=center;" vertex="1" parent="WIyWlLk6GJQsqaUBKTNV-1">
          <mxGeometry x="290" y="830" width="110" height="60" as="geometry" />
        </mxCell>
        <mxCell id="-uarBoEVgPk2LizDU0yT-98" value="Wait for another turn / more money, go Back to Start" style="rounded=0;whiteSpace=wrap;html=1;align=center;" vertex="1" parent="WIyWlLk6GJQsqaUBKTNV-1">
          <mxGeometry x="570" y="830" width="110" height="60" as="geometry" />
        </mxCell>
        <mxCell id="-uarBoEVgPk2LizDU0yT-101" value="Wait for another turn / more money, go Back to Start" style="rounded=0;whiteSpace=wrap;html=1;align=center;" vertex="1" parent="WIyWlLk6GJQsqaUBKTNV-1">
          <mxGeometry x="820" y="830" width="110" height="60" as="geometry" />
        </mxCell>
        <mxCell id="-uarBoEVgPk2LizDU0yT-103" value="Back to Start" style="rounded=0;whiteSpace=wrap;html=1;align=center;" vertex="1" parent="WIyWlLk6GJQsqaUBKTNV-1">
          <mxGeometry x="700" y="1660" width="120" height="60" as="geometry" />
        </mxCell>
        <mxCell id="-uarBoEVgPk2LizDU0yT-105" value="&lt;b style=&quot;font-size: 48px&quot;&gt;ELIJAH &lt;br&gt;HARRISON&lt;/b&gt;" style="text;html=1;strokeColor=none;fillColor=none;align=left;verticalAlign=middle;whiteSpace=wrap;rounded=0;" vertex="1" parent="WIyWlLk6GJQsqaUBKTNV-1">
          <mxGeometry x="290" y="1970" width="477" height="140" as="geometry" />
        </mxCell>
      </root>
    </mxGraphModel>
  </diagram>
</mxfile>
